<mxfile host="65bd71144e">
    <diagram id="gIA9hey2ilhdhajJL3Nm" name="ページ1">
        <mxGraphModel dx="1074" dy="790" grid="0" gridSize="10" guides="1" tooltips="1" connect="1" arrows="1" fold="1" page="1" pageScale="1" pageWidth="827" pageHeight="1169" background="#ffffff" math="0" shadow="1">
            <root>
                <mxCell id="0"/>
                <mxCell id="1" parent="0"/>
                <mxCell id="37" value="alt" style="shape=umlFrame;tabWidth=110;tabHeight=30;tabPosition=left;html=1;boundedLbl=1;labelInHeader=1;width=140;height=30;fontSize=10;fontColor=#ffffff;fillColor=#1ba1e2;strokeColor=#006EAF;" vertex="1" parent="1">
                    <mxGeometry x="121" y="210" width="556" height="252" as="geometry"/>
                </mxCell>
                <mxCell id="38" value="ユーザが取得できない場合" style="text;fontSize=10;fontColor=#000000;" vertex="1" parent="37">
                    <mxGeometry width="100" height="20" relative="1" as="geometry">
                        <mxPoint x="20" y="40" as="offset"/>
                    </mxGeometry>
                </mxCell>
                <mxCell id="39" value="ユーザが取得できた場合" style="line;strokeWidth=1;dashed=1;labelPosition=center;verticalLabelPosition=bottom;align=left;verticalAlign=top;spacingLeft=20;spacingTop=15;fontSize=10;fontColor=#000000;labelBackgroundColor=none;strokeColor=#000000;" vertex="1" parent="37">
                    <mxGeometry y="126" width="556" height="10.080000000000002" as="geometry"/>
                </mxCell>
                <mxCell id="36" value="画面表示()" style="text;html=1;align=center;verticalAlign=middle;resizable=0;points=[];autosize=1;strokeColor=none;fillColor=none;fontSize=10;fontColor=#000000;" vertex="1" parent="37">
                    <mxGeometry x="207.62477558348294" y="215.41379310344828" width="60" height="20" as="geometry"/>
                </mxCell>
                <mxCell id="31" value="ユーザ情報をセット&lt;br&gt;(ユーザID)" style="text;html=1;align=center;verticalAlign=middle;resizable=0;points=[];autosize=1;strokeColor=none;fillColor=none;fontSize=10;fontColor=#000000;" vertex="1" parent="37">
                    <mxGeometry x="201.63734290843806" y="166.70689655172416" width="110" height="30" as="geometry"/>
                </mxCell>
                <mxCell id="49" value="&lt;div style=&quot;text-align: center&quot;&gt;&lt;span&gt;&lt;font face=&quot;helvetica&quot;&gt;エラーメッセージをセット()&lt;/font&gt;&lt;/span&gt;&lt;/div&gt;" style="text;whiteSpace=wrap;html=1;fontSize=10;fontColor=#000000;labelBackgroundColor=none;" vertex="1" parent="37">
                    <mxGeometry x="189.6588868940754" y="72.77586206896552" width="93.83123877917414" height="28.24137931034483" as="geometry"/>
                </mxCell>
                <mxCell id="55" value="画面表示()" style="text;html=1;align=center;verticalAlign=middle;resizable=0;points=[];autosize=1;strokeColor=none;fillColor=none;fontSize=10;fontColor=#000000;" vertex="1" parent="37">
                    <mxGeometry x="191.6552962298025" y="107.5344827586207" width="60" height="20" as="geometry"/>
                </mxCell>
                <mxCell id="16" style="edgeStyle=none;html=1;entryX=-0.4;entryY=0.25;entryDx=0;entryDy=0;entryPerimeter=0;fontColor=#FFFFFF;endArrow=classic;endFill=1;strokeColor=#000000;" edge="1" parent="1" source="2" target="14">
                    <mxGeometry relative="1" as="geometry"/>
                </mxCell>
                <mxCell id="2" value="" style="html=1;points=[];perimeter=orthogonalPerimeter;fillColor=#1ba1e2;fontColor=#ffffff;strokeColor=#006EAF;" vertex="1" parent="1">
                    <mxGeometry x="40" y="120" width="10" height="560" as="geometry"/>
                </mxCell>
                <mxCell id="3" value="&lt;font color=&quot;#000000&quot;&gt;ユーザ&lt;/font&gt;" style="shape=umlActor;verticalLabelPosition=bottom;verticalAlign=top;html=1;fillColor=#1ba1e2;fontColor=#ffffff;strokeColor=#006EAF;" vertex="1" parent="1">
                    <mxGeometry x="30" y="31" width="30" height="60" as="geometry"/>
                </mxCell>
                <mxCell id="10" style="edgeStyle=none;html=1;fontColor=#FFFFFF;strokeColor=#000000;endArrow=none;endFill=0;dashed=1;startArrow=none;" edge="1" parent="1" source="51">
                    <mxGeometry relative="1" as="geometry">
                        <mxPoint x="170" y="680" as="targetPoint"/>
                    </mxGeometry>
                </mxCell>
                <mxCell id="6" value="ログイン画面" style="rounded=0;whiteSpace=wrap;html=1;fontColor=#ffffff;fillColor=#1ba1e2;strokeColor=#006EAF;" vertex="1" parent="1">
                    <mxGeometry x="110" y="40" width="120" height="60" as="geometry"/>
                </mxCell>
                <mxCell id="11" style="edgeStyle=none;html=1;dashed=1;fontColor=#FFFFFF;endArrow=none;endFill=0;strokeColor=#000000;startArrow=none;" edge="1" parent="1" source="33">
                    <mxGeometry relative="1" as="geometry">
                        <mxPoint x="310" y="680" as="targetPoint"/>
                    </mxGeometry>
                </mxCell>
                <mxCell id="7" value="メイン画面" style="rounded=0;whiteSpace=wrap;html=1;fontColor=#ffffff;fillColor=#1ba1e2;strokeColor=#006EAF;" vertex="1" parent="1">
                    <mxGeometry x="250" y="40" width="120" height="60" as="geometry"/>
                </mxCell>
                <mxCell id="12" style="edgeStyle=none;html=1;dashed=1;fontColor=#FFFFFF;endArrow=none;endFill=0;strokeColor=#000000;startArrow=none;" edge="1" parent="1" source="19">
                    <mxGeometry relative="1" as="geometry">
                        <mxPoint x="480" y="680" as="targetPoint"/>
                    </mxGeometry>
                </mxCell>
                <mxCell id="8" value="ログイン&lt;br&gt;コントローラ" style="rounded=0;whiteSpace=wrap;html=1;fontColor=#ffffff;fillColor=#60a917;strokeColor=#2D7600;" vertex="1" parent="1">
                    <mxGeometry x="420" y="40" width="120" height="60" as="geometry"/>
                </mxCell>
                <mxCell id="13" style="edgeStyle=none;html=1;dashed=1;fontColor=#FFFFFF;endArrow=none;endFill=0;strokeColor=#000000;startArrow=none;" edge="1" parent="1" source="24">
                    <mxGeometry relative="1" as="geometry">
                        <mxPoint x="640" y="680" as="targetPoint"/>
                    </mxGeometry>
                </mxCell>
                <mxCell id="9" value="ユーザ台帳" style="rounded=0;whiteSpace=wrap;html=1;fontColor=#ffffff;fillColor=#d80073;strokeColor=#A50040;" vertex="1" parent="1">
                    <mxGeometry x="580" y="40" width="120" height="60" as="geometry"/>
                </mxCell>
                <mxCell id="18" style="edgeStyle=none;html=1;fontSize=10;fontColor=#000000;endArrow=classic;endFill=1;strokeColor=#000000;" edge="1" parent="1">
                    <mxGeometry relative="1" as="geometry">
                        <mxPoint x="470" y="140" as="targetPoint"/>
                        <mxPoint x="170" y="140" as="sourcePoint"/>
                    </mxGeometry>
                </mxCell>
                <mxCell id="14" value="" style="html=1;points=[];perimeter=orthogonalPerimeter;fontColor=#ffffff;fillColor=#1ba1e2;strokeColor=#006EAF;" vertex="1" parent="1">
                    <mxGeometry x="165" y="130" width="10" height="20" as="geometry"/>
                </mxCell>
                <mxCell id="15" value="" style="edgeStyle=none;html=1;fontColor=#FFFFFF;strokeColor=#000000;endArrow=none;endFill=0;dashed=1;" edge="1" parent="1" source="6" target="14">
                    <mxGeometry relative="1" as="geometry">
                        <mxPoint x="170" y="680" as="targetPoint"/>
                        <mxPoint x="170" y="100" as="sourcePoint"/>
                    </mxGeometry>
                </mxCell>
                <mxCell id="17" value="&lt;font color=&quot;#000000&quot; style=&quot;font-size: 10px&quot;&gt;ログイン(ユーザID)&lt;/font&gt;" style="text;html=1;align=center;verticalAlign=middle;resizable=0;points=[];autosize=1;strokeColor=none;fillColor=none;fontColor=#FFFFFF;" vertex="1" parent="1">
                    <mxGeometry x="50" y="138" width="100" height="20" as="geometry"/>
                </mxCell>
                <mxCell id="26" style="edgeStyle=none;html=1;fontSize=10;fontColor=#000000;endArrow=classic;endFill=1;strokeColor=#000000;" edge="1" parent="1" source="19">
                    <mxGeometry relative="1" as="geometry">
                        <mxPoint x="630" y="190" as="targetPoint"/>
                    </mxGeometry>
                </mxCell>
                <mxCell id="30" style="edgeStyle=none;html=1;fontSize=10;fontColor=#000000;endArrow=classic;endFill=1;strokeColor=#000000;" edge="1" parent="1">
                    <mxGeometry relative="1" as="geometry">
                        <mxPoint x="475" y="365" as="sourcePoint"/>
                        <mxPoint x="315" y="365" as="targetPoint"/>
                    </mxGeometry>
                </mxCell>
                <mxCell id="35" style="edgeStyle=none;html=1;entryX=1.1;entryY=0.1;entryDx=0;entryDy=0;entryPerimeter=0;fontSize=10;fontColor=#000000;endArrow=classic;endFill=1;strokeColor=#000000;" edge="1" parent="1" source="19" target="33">
                    <mxGeometry relative="1" as="geometry"/>
                </mxCell>
                <mxCell id="48" style="edgeStyle=none;html=1;fontSize=10;fontColor=#000000;endArrow=classic;endFill=1;strokeColor=#000000;" edge="1" parent="1">
                    <mxGeometry relative="1" as="geometry">
                        <mxPoint x="475" y="280" as="sourcePoint"/>
                        <mxPoint x="175" y="280" as="targetPoint"/>
                    </mxGeometry>
                </mxCell>
                <mxCell id="54" style="edgeStyle=none;html=1;fontSize=10;fontColor=#000000;endArrow=classic;endFill=1;strokeColor=#000000;" edge="1" parent="1" source="19" target="51">
                    <mxGeometry relative="1" as="geometry"/>
                </mxCell>
                <mxCell id="19" value="" style="html=1;points=[];perimeter=orthogonalPerimeter;fontColor=#ffffff;fillColor=#1ba1e2;strokeColor=#006EAF;" vertex="1" parent="1">
                    <mxGeometry x="475" y="130" width="10" height="330" as="geometry"/>
                </mxCell>
                <mxCell id="20" value="" style="edgeStyle=none;html=1;dashed=1;fontColor=#FFFFFF;endArrow=none;endFill=0;strokeColor=#000000;" edge="1" parent="1" source="8" target="19">
                    <mxGeometry relative="1" as="geometry">
                        <mxPoint x="480" y="680" as="targetPoint"/>
                        <mxPoint x="480" y="100" as="sourcePoint"/>
                    </mxGeometry>
                </mxCell>
                <mxCell id="21" value="&lt;font color=&quot;#000000&quot; style=&quot;font-size: 10px&quot;&gt;ログインする(ユーザID)&lt;/font&gt;" style="text;html=1;align=center;verticalAlign=middle;resizable=0;points=[];autosize=1;strokeColor=none;fillColor=none;fontColor=#FFFFFF;" vertex="1" parent="1">
                    <mxGeometry x="200" y="141" width="120" height="20" as="geometry"/>
                </mxCell>
                <mxCell id="22" style="edgeStyle=none;html=1;entryX=0.9;entryY=0.418;entryDx=0;entryDy=0;entryPerimeter=0;fontSize=10;fontColor=#000000;endArrow=classic;endFill=1;strokeColor=#000000;" edge="1" parent="1">
                    <mxGeometry relative="1" as="geometry">
                        <mxPoint x="485" y="150" as="sourcePoint"/>
                        <mxPoint x="484" y="175.98000000000002" as="targetPoint"/>
                        <Array as="points">
                            <mxPoint x="500" y="150"/>
                            <mxPoint x="500" y="170"/>
                            <mxPoint x="500" y="170"/>
                            <mxPoint x="500" y="170"/>
                            <mxPoint x="500" y="170"/>
                        </Array>
                    </mxGeometry>
                </mxCell>
                <mxCell id="23" value="&lt;font color=&quot;#000000&quot;&gt;入力が空かどうか&lt;br&gt;(ユーザID)&lt;/font&gt;" style="text;html=1;align=center;verticalAlign=middle;resizable=0;points=[];autosize=1;strokeColor=none;fillColor=none;fontSize=10;" vertex="1" parent="1">
                    <mxGeometry x="500" y="141" width="100" height="30" as="geometry"/>
                </mxCell>
                <mxCell id="24" value="" style="html=1;points=[];perimeter=orthogonalPerimeter;fontColor=#ffffff;fillColor=#1ba1e2;strokeColor=#006EAF;" vertex="1" parent="1">
                    <mxGeometry x="635" y="180" width="10" height="20" as="geometry"/>
                </mxCell>
                <mxCell id="25" value="" style="edgeStyle=none;html=1;dashed=1;fontColor=#FFFFFF;endArrow=none;endFill=0;strokeColor=#000000;" edge="1" parent="1" source="9" target="24">
                    <mxGeometry relative="1" as="geometry">
                        <mxPoint x="640" y="680" as="targetPoint"/>
                        <mxPoint x="640" y="100" as="sourcePoint"/>
                    </mxGeometry>
                </mxCell>
                <mxCell id="27" value="ユーザを取得(ユーザID)" style="text;html=1;align=center;verticalAlign=middle;resizable=0;points=[];autosize=1;strokeColor=none;fillColor=none;fontSize=10;fontColor=#000000;" vertex="1" parent="1">
                    <mxGeometry x="498" y="194" width="120" height="20" as="geometry"/>
                </mxCell>
                <mxCell id="33" value="" style="html=1;points=[];perimeter=orthogonalPerimeter;fontColor=#ffffff;fillColor=#1ba1e2;strokeColor=#006EAF;" vertex="1" parent="1">
                    <mxGeometry x="305" y="410" width="10" height="20" as="geometry"/>
                </mxCell>
                <mxCell id="34" value="" style="edgeStyle=none;html=1;dashed=1;fontColor=#FFFFFF;endArrow=none;endFill=0;strokeColor=#000000;" edge="1" parent="1" source="7" target="33">
                    <mxGeometry relative="1" as="geometry">
                        <mxPoint x="310" y="680" as="targetPoint"/>
                        <mxPoint x="310" y="100" as="sourcePoint"/>
                    </mxGeometry>
                </mxCell>
                <mxCell id="29" value="" style="html=1;points=[];perimeter=orthogonalPerimeter;fontColor=#ffffff;fillColor=#1ba1e2;strokeColor=#006EAF;" vertex="1" parent="1">
                    <mxGeometry x="305" y="363" width="10" height="20" as="geometry"/>
                </mxCell>
                <mxCell id="45" value="" style="html=1;points=[];perimeter=orthogonalPerimeter;fontColor=#ffffff;fillColor=#1ba1e2;strokeColor=#006EAF;" vertex="1" parent="1">
                    <mxGeometry x="165" y="275" width="10" height="20" as="geometry"/>
                </mxCell>
                <mxCell id="46" value="" style="edgeStyle=none;html=1;fontColor=#FFFFFF;strokeColor=#000000;endArrow=none;endFill=0;dashed=1;startArrow=none;" edge="1" parent="1" source="14" target="45">
                    <mxGeometry relative="1" as="geometry">
                        <mxPoint x="170" y="680" as="targetPoint"/>
                        <mxPoint x="170" y="150" as="sourcePoint"/>
                    </mxGeometry>
                </mxCell>
                <mxCell id="51" value="" style="html=1;points=[];perimeter=orthogonalPerimeter;fontColor=#ffffff;fillColor=#1ba1e2;strokeColor=#006EAF;" vertex="1" parent="1">
                    <mxGeometry x="165" y="317" width="10" height="20" as="geometry"/>
                </mxCell>
                <mxCell id="52" value="" style="edgeStyle=none;html=1;fontColor=#FFFFFF;strokeColor=#000000;endArrow=none;endFill=0;dashed=1;startArrow=none;" edge="1" parent="1" source="45" target="51">
                    <mxGeometry relative="1" as="geometry">
                        <mxPoint x="170" y="680" as="targetPoint"/>
                        <mxPoint x="170" y="295" as="sourcePoint"/>
                    </mxGeometry>
                </mxCell>
            </root>
        </mxGraphModel>
    </diagram>
</mxfile>